# xmcd CD database file
#
# Track frame offsets:
#	150
#	23907
#	51719
#	84057
#	132624
#	160326
#	185403
#	210018
#	241567
#	278412
#
# Disc length: 3988 seconds
#
# Revision: 1
# Processed by: cddbd v1.4PL0 Copyright (c) Steve Scherf et al.
# Submitted via: CDex 1.50
#
DISCID=790f920a
DTITLE=Charly Antolini - Jazz Power - Love to play!
DYEAR=1999
DGENRE=Jazz
TTITLE0=Stuffy
TTITLE1=Someday My Prince Will Come
TTITLE2=Cry Me A River
TTITLE3=Caravan
TTITLE4=Makin' Whopee
TTITLE5=Five Brothers
TTITLE6=Recado Bossa
TTITLE7=Broadway
TTITLE8=La Belle
TTITLE9=Zoot
EXTD=YEAR: 1999
EXTT0=
EXTT1=
EXTT2=
EXTT3=
EXTT4=
EXTT5=
EXTT6=
EXTT7=
EXTT8=
EXTT9=
PLAYORDER=
